<svg width="1200" height="630" viewBox="0 0 1200 630" fill="none" xmlns="http://www.w3.org/2000/svg">
  <!-- Background -->
  <rect width="1200" height="630" fill="#0a0a0a"/>

  <!-- Subtle grid lines -->
  <line x1="0" y1="210" x2="1200" y2="210" stroke="#1a1a1a" stroke-width="1"/>
  <line x1="0" y1="420" x2="1200" y2="420" stroke="#1a1a1a" stroke-width="1"/>
  <line x1="400" y1="0" x2="400" y2="630" stroke="#1a1a1a" stroke-width="1"/>
  <line x1="800" y1="0" x2="800" y2="630" stroke="#1a1a1a" stroke-width="1"/>

  <!-- Logo icon -->
  <rect x="80" y="80" width="56" height="56" rx="14" fill="#7c3aed"/>
  <rect x="80" y="80" width="56" height="56" rx="14" fill="url(#logoGrad)"/>
  <rect x="88" y="88" width="40" height="32" rx="5" fill="#1e1b4b"/>
  <rect x="88" y="88" width="40" height="11" rx="5" fill="#4c1d95"/>
  <circle cx="93" cy="93.5" r="2" fill="#7c3aed" opacity="0.8"/>
  <circle cx="100" cy="93.5" r="2" fill="#7c3aed" opacity="0.5"/>
  <rect x="90" y="104" width="24" height="2" rx="1" fill="#7c3aed" opacity="0.6"/>
  <rect x="90" y="109" width="16" height="2" rx="1" fill="#7c3aed" opacity="0.3"/>

  <!-- Wordmark -->
  <text x="152" y="119" font-family="system-ui, -apple-system, sans-serif" font-size="26" font-weight="700" fill="#f4f4f5" letter-spacing="-0.5">Explain This Website</text>

  <!-- Hero headline -->
  <text x="80" y="260" font-family="system-ui, -apple-system, sans-serif" font-size="64" font-weight="800" fill="#f4f4f5" letter-spacing="-2">Analyze any website</text>
  <text x="80" y="336" font-family="system-ui, -apple-system, sans-serif" font-size="64" font-weight="800" fill="#71717a" letter-spacing="-2">in seconds.</text>

  <!-- Subline -->
  <text x="80" y="400" font-family="system-ui, -apple-system, sans-serif" font-size="24" fill="#71717a">Tech stack · SEO audit · UX signals · Conversion score · AI detection</text>

  <!-- Feature pills -->
  <rect x="80" y="450" width="130" height="40" rx="20" fill="#18181b" stroke="#3f3f46" stroke-width="1"/>
  <text x="145" y="475" font-family="system-ui, -apple-system, sans-serif" font-size="16" fill="#a1a1aa" text-anchor="middle">Tech Stack</text>

  <rect x="226" y="450" width="110" height="40" rx="20" fill="#18181b" stroke="#3f3f46" stroke-width="1"/>
  <text x="281" y="475" font-family="system-ui, -apple-system, sans-serif" font-size="16" fill="#a1a1aa" text-anchor="middle">SEO Audit</text>

  <rect x="352" y="450" width="110" height="40" rx="20" fill="#18181b" stroke="#3f3f46" stroke-width="1"/>
  <text x="407" y="475" font-family="system-ui, -apple-system, sans-serif" font-size="16" fill="#a1a1aa" text-anchor="middle">UX Score</text>

  <rect x="478" y="450" width="150" height="40" rx="20" fill="#18181b" stroke="#3f3f46" stroke-width="1"/>
  <text x="553" y="475" font-family="system-ui, -apple-system, sans-serif" font-size="16" fill="#a1a1aa" text-anchor="middle">AI Detection</text>

  <rect x="644" y="450" width="60" height="40" rx="20" fill="#18181b" stroke="#3f3f46" stroke-width="1"/>
  <text x="674" y="475" font-family="system-ui, -apple-system, sans-serif" font-size="16" fill="#52525b" text-anchor="middle">···</text>

  <!-- Right side: mock score card -->
  <rect x="820" y="140" width="300" height="360" rx="16" fill="#18181b" stroke="#27272a" stroke-width="1"/>
  <text x="980" y="185" font-family="system-ui, -apple-system, sans-serif" font-size="13" font-weight="600" fill="#7c3aed" text-anchor="middle" letter-spacing="1">SEO SCORE</text>
  <text x="980" y="250" font-family="system-ui, -apple-system, sans-serif" font-size="72" font-weight="800" fill="#f4f4f5" text-anchor="middle">87</text>
  <text x="980" y="278" font-family="system-ui, -apple-system, sans-serif" font-size="20" fill="#52525b" text-anchor="middle">/100</text>
  <line x1="850" y1="305" x2="1110" y2="305" stroke="#27272a" stroke-width="1"/>
  <text x="860" y="335" font-family="system-ui, -apple-system, sans-serif" font-size="13" fill="#71717a">✓  HTTPS enabled</text>
  <text x="860" y="360" font-family="system-ui, -apple-system, sans-serif" font-size="13" fill="#71717a">✓  Meta description</text>
  <text x="860" y="385" font-family="system-ui, -apple-system, sans-serif" font-size="13" fill="#71717a">✓  Open Graph tags</text>
  <text x="860" y="410" font-family="system-ui, -apple-system, sans-serif" font-size="13" fill="#ef4444">✗  No canonical URL</text>
  <text x="860" y="435" font-family="system-ui, -apple-system, sans-serif" font-size="13" fill="#f59e0b">⚠  Missing hreflang</text>
  <text x="860" y="460" font-family="system-ui, -apple-system, sans-serif" font-size="13" fill="#71717a">✓  Viewport tag</text>

  <!-- URL badge bottom right -->
  <text x="1120" y="580" font-family="system-ui, -apple-system, sans-serif" font-size="16" fill="#3f3f46" text-anchor="end">explainthewebsite.vercel.app</text>

  <defs>
    <linearGradient id="logoGrad" x1="80" y1="80" x2="136" y2="136" gradientUnits="userSpaceOnUse">
      <stop offset="0%" stop-color="#7c3aed"/>
      <stop offset="100%" stop-color="#4c1d95"/>
    </linearGradient>
  </defs>
</svg>
